{
 "cells": [
  {
   "cell_type": "code",
   "execution_count": null,
   "id": "bbe82793-ad71-431a-bd88-7cae4f62c08f",
   "metadata": {},
   "outputs": [],
   "source": []
  },
  {
   "cell_type": "code",
   "execution_count": 43,
   "id": "427d8fdf-b360-4eac-bfd1-f60305b06a20",
   "metadata": {},
   "outputs": [],
   "source": [
    "PATH = 'dudu.wav'\n",
    "\n",
    "# Configuration\n",
    "FPS = 30\n",
    "FFT_WINDOW_SECONDS = 0.25 # how many seconds of audio make up an FFT window\n",
    "\n",
    "# Note range to display\n",
    "FREQ_MIN = 10\n",
    "FREQ_MAX = 1000\n",
    "\n",
    "# Notes to display\n",
    "TOP_NOTES = 3\n",
    "\n",
    "# Names of the notes\n",
    "NOTE_NAMES = [\"C\", \"C#\", \"D\", \"D#\", \"E\", \"F\", \"F#\", \"G\", \"G#\", \"A\", \"A#\", \"B\"]\n",
    "\n",
    "# Output size. Generally use SCALE for higher res, unless you need a non-standard aspect ratio.\n",
    "RESOLUTION = (1920, 1080)\n",
    "SCALE = 2 # 0.5=QHD(960x540), 1=HD(1920x1080), 2=4K(3840x2160)\n"
   ]
  },
  {
   "cell_type": "code",
   "execution_count": 78,
   "id": "e4f67171-a3cc-47ca-96c6-58087184e95c",
   "metadata": {},
   "outputs": [],
   "source": [
    "import matplotlib.pyplot as plt\n",
    "from scipy.fftpack import fft\n",
    "from scipy.io import wavfile # get the api\n",
    "import os;\n",
    "\n",
    "AUDIO_FILE = PATH\n",
    "\n",
    "fs, data = wavfile.read(AUDIO_FILE) # load the data\n",
    "#audio = data #mono track\n",
    "audio = data.T[0] # this is a two channel soundtrack, get the first track\n",
    "FRAME_STEP = (fs / FPS) # audio samples per video frame\n",
    "FFT_WINDOW_SIZE = int(fs * FFT_WINDOW_SECONDS)\n",
    "AUDIO_LENGTH = len(audio)/fs"
   ]
  },
  {
   "cell_type": "code",
   "execution_count": 80,
   "id": "5e69d4a1-211a-4b45-a884-403c6e448d7c",
   "metadata": {},
   "outputs": [
    {
     "name": "stdout",
     "output_type": "stream",
     "text": [
      "8.45204081632653\n"
     ]
    }
   ],
   "source": [
    "print(AUDIO_LENGTH)"
   ]
  },
  {
   "cell_type": "code",
   "execution_count": 64,
   "id": "1de3a3f6-cc06-4634-a1e4-a1bfb01bbd94",
   "metadata": {},
   "outputs": [],
   "source": [
    "import plotly.graph_objects as go\n",
    "\n",
    "def plot_fft(p, xf, fs, notes, dimensions=(960,540)):\n",
    "  layout = go.Layout(\n",
    "      title=\"frequency spectrum\",\n",
    "      autosize=False,\n",
    "      width=dimensions[0],\n",
    "      height=dimensions[1],\n",
    "      xaxis_title=\"Frequency (note)\",\n",
    "      yaxis_title=\"Magnitude\",\n",
    "      font={'size' : 24}\n",
    "  )\n",
    "\n",
    "  fig = go.Figure(layout=layout,\n",
    "                  layout_xaxis_range=[FREQ_MIN,FREQ_MAX],\n",
    "                  layout_yaxis_range=[0,1]\n",
    "                  )\n",
    "  \n",
    "  fig.add_trace(go.Scatter(\n",
    "      x = xf,\n",
    "      y = p))\n",
    "  \n",
    "  for note in notes:\n",
    "    fig.add_annotation(x=note[0]+10, y=note[2],\n",
    "            text=note[1],\n",
    "            font = {'size' : 48},\n",
    "            showarrow=False)\n",
    "  return fig\n",
    "\n",
    "def extract_sample(audio, frame_number):\n",
    "  end = frame_number * FRAME_OFFSET\n",
    "  begin = int(end - FFT_WINDOW_SIZE)\n",
    "\n",
    "  if end == 0:\n",
    "    # We have no audio yet, return all zeros (very beginning)\n",
    "    return np.zeros((np.abs(begin)),dtype=float)\n",
    "  elif begin<0:\n",
    "    # We have some audio, padd with zeros\n",
    "    return np.concatenate([np.zeros((np.abs(begin)),dtype=float),audio[0:end]])\n",
    "  else:\n",
    "    # Usually this happens, return the next sample\n",
    "    return audio[begin:end]\n",
    "\n",
    "def find_top_notes(fft,num):\n",
    "  if np.max(fft.real)<0.001:\n",
    "    return []\n",
    "\n",
    "  lst = [x for x in enumerate(fft.real)]\n",
    "  lst = sorted(lst, key=lambda x: x[1],reverse=True)\n",
    "\n",
    "  idx = 0\n",
    "  found = []\n",
    "  found_note = set()\n",
    "  while( (idx<len(lst)) and (len(found)<num) ):\n",
    "    f = xf[lst[idx][0]]\n",
    "    y = lst[idx][1]\n",
    "    n = freq_to_number(f)\n",
    "    n0 = int(round(n))\n",
    "    name = note_name(n0)\n",
    "\n",
    "    if name not in found_note:\n",
    "      found_note.add(name)\n",
    "      s = [f,note_name(n0),y]\n",
    "      found.append(s)\n",
    "    idx += 1\n",
    "    \n",
    "  return found"
   ]
  },
  {
   "cell_type": "code",
   "execution_count": 82,
   "id": "afdff78d-c951-41f5-b6f8-b8252bb3f368",
   "metadata": {},
   "outputs": [
    {
     "name": "stdout",
     "output_type": "stream",
     "text": [
      "The file does not exist\n",
      "Max amplitude: 14114848.754930142\n"
     ]
    },
    {
     "name": "stderr",
     "output_type": "stream",
     "text": [
      "100%|████████████████████████████████████████████████████████████████████████████████| 253/253 [03:00<00:00,  1.40it/s]\n"
     ]
    }
   ],
   "source": [
    "import numpy as np\n",
    "import tqdm\n",
    "\n",
    "if os.path.exists('\\content\\*.png'):\n",
    "  os.remove('\\content\\*.png')\n",
    "else:\n",
    "  print(\"The file does not exist\")  \n",
    "\n",
    "# See https://newt.phys.unsw.edu.au/jw/notes.html\n",
    "def freq_to_number(f): return 69 + 12*np.log2(f/440.0)\n",
    "def number_to_freq(n): return 440 * 2.0**((n-69)/12.0)\n",
    "def note_name(n): return NOTE_NAMES[n % 12] + str(int(n/12 - 1))\n",
    "\n",
    "# Hanning window function\n",
    "window = 0.5 * (1 - np.cos(np.linspace(0, 2*np.pi, FFT_WINDOW_SIZE, False)))\n",
    "\n",
    "xf = np.fft.rfftfreq(FFT_WINDOW_SIZE, 1/fs)\n",
    "FRAME_COUNT = int(AUDIO_LENGTH*FPS)\n",
    "FRAME_OFFSET = int(len(audio)/FRAME_COUNT)\n",
    "\n",
    "# Pass 1, find out the maximum amplitude so we can scale.\n",
    "mx = 0\n",
    "for frame_number in range(FRAME_COUNT):\n",
    "  sample = extract_sample(audio, frame_number)\n",
    "\n",
    "  fft = np.fft.rfft(sample * window)\n",
    "  fft = np.abs(fft).real \n",
    "  mx = max(np.max(fft),mx)\n",
    "\n",
    "print(f\"Max amplitude: {mx}\")\n",
    "\n",
    "# Pass 2, produce the animation\n",
    "for frame_number in tqdm.tqdm(range(FRAME_COUNT)):\n",
    "  sample = extract_sample(audio, frame_number)\n",
    "  fft = np.fft.rfft(sample * window)\n",
    "  fft = np.abs(fft) / mx \n",
    "     \n",
    "  s = find_top_notes(fft,TOP_NOTES)\n",
    "\n",
    "  fig = plot_fft(fft.real,xf,fs,s,RESOLUTION)\n",
    "  fig.write_image(f\"frame{frame_number}.png\",scale=2)"
   ]
  },
  {
   "cell_type": "code",
   "execution_count": 84,
   "id": "fb9742ea-bc8e-4717-9fbb-d5f640af6b77",
   "metadata": {},
   "outputs": [
    {
     "name": "stderr",
     "output_type": "stream",
     "text": [
      "ffmpeg version 4.2.2 Copyright (c) 2000-2019 the FFmpeg developers\n",
      "  built with gcc 9.2.1 (GCC) 20200122\n",
      "  configuration: --disable-static --enable-shared --enable-gpl --enable-version3 --enable-sdl2 --enable-fontconfig --enable-gnutls --enable-iconv --enable-libass --enable-libdav1d --enable-libbluray --enable-libfreetype --enable-libmp3lame --enable-libopencore-amrnb --enable-libopencore-amrwb --enable-libopenjpeg --enable-libopus --enable-libshine --enable-libsnappy --enable-libsoxr --enable-libtheora --enable-libtwolame --enable-libvpx --enable-libwavpack --enable-libwebp --enable-libx264 --enable-libx265 --enable-libxml2 --enable-libzimg --enable-lzma --enable-zlib --enable-gmp --enable-libvidstab --enable-libvorbis --enable-libvo-amrwbenc --enable-libmysofa --enable-libspeex --enable-libxvid --enable-libaom --enable-libmfx --enable-amf --enable-ffnvcodec --enable-cuvid --enable-d3d11va --enable-nvenc --enable-nvdec --enable-dxva2 --enable-avisynth --enable-libopenmpt\n",
      "  libavutil      56. 31.100 / 56. 31.100\n",
      "  libavcodec     58. 54.100 / 58. 54.100\n",
      "  libavformat    58. 29.100 / 58. 29.100\n",
      "  libavdevice    58.  8.100 / 58.  8.100\n",
      "  libavfilter     7. 57.100 /  7. 57.100\n",
      "  libswscale      5.  5.100 /  5.  5.100\n",
      "  libswresample   3.  5.100 /  3.  5.100\n",
      "  libpostproc    55.  5.100 / 55.  5.100\n",
      "Input #0, image2, from 'frame%d.png':\n",
      "  Duration: 00:00:13.93, start: 0.000000, bitrate: N/A\n",
      "    Stream #0:0: Video: png, rgba(pc), 3840x2160, 30 fps, 30 tbr, 30 tbn, 30 tbc\n",
      "Guessed Channel Layout for Input Stream #1.0 : stereo\n",
      "Input #1, wav, from 'dudu.wav':\n",
      "  Duration: 00:00:08.45, bitrate: 1411 kb/s\n",
      "    Stream #1:0: Audio: pcm_s16le ([1][0][0][0] / 0x0001), 44100 Hz, stereo, s16, 1411 kb/s\n",
      "Stream mapping:\n",
      "  Stream #0:0 -> #0:0 (png (native) -> h264 (libx264))\n",
      "  Stream #1:0 -> #0:1 (pcm_s16le (native) -> aac (native))\n",
      "Press [q] to stop, [?] for help\n",
      "[image2 @ 0000023bfd901180] Thread message queue blocking; consider raising the thread_queue_size option (current value: 8)\n",
      "[libx264 @ 0000023bfd90d840] using cpu capabilities: MMX2 SSE2Fast SSSE3 SSE4.2 AVX FMA3 BMI2 AVX2\n",
      "[libx264 @ 0000023bfd90d840] profile High, level 5.1, 4:2:0, 8-bit\n",
      "[libx264 @ 0000023bfd90d840] 264 - core 159 - H.264/MPEG-4 AVC codec - Copyleft 2003-2019 - http://www.videolan.org/x264.html - options: cabac=1 ref=3 deblock=1:0:0 analyse=0x3:0x113 me=hex subme=7 psy=1 psy_rd=1.00:0.00 mixed_ref=1 me_range=16 chroma_me=1 trellis=1 8x8dct=1 cqm=0 deadzone=21,11 fast_pskip=1 chroma_qp_offset=-2 threads=12 lookahead_threads=2 sliced_threads=0 nr=0 decimate=1 interlaced=0 bluray_compat=0 constrained_intra=0 bframes=3 b_pyramid=2 b_adapt=1 b_bias=0 direct=1 weightb=1 open_gop=0 weightp=2 keyint=250 keyint_min=25 scenecut=40 intra_refresh=0 rc_lookahead=40 rc=crf mbtree=1 crf=23.0 qcomp=0.60 qpmin=0 qpmax=69 qpstep=4 ip_ratio=1.40 aq=1:1.00\n",
      "Output #0, mp4, to 'movie.mp4':\n",
      "  Metadata:\n",
      "    encoder         : Lavf58.29.100\n",
      "    Stream #0:0: Video: h264 (libx264) (avc1 / 0x31637661), yuv420p(progressive), 3840x2160, q=-1--1, 30 fps, 15360 tbn, 30 tbc\n",
      "    Metadata:\n",
      "      encoder         : Lavc58.54.100 libx264\n",
      "    Side data:\n",
      "      cpb: bitrate max/min/avg: 0/0/0 buffer size: 0 vbv_delay: -1\n",
      "    Stream #0:1: Audio: aac (LC) (mp4a / 0x6134706D), 44100 Hz, stereo, fltp, 128 kb/s\n",
      "    Metadata:\n",
      "      encoder         : Lavc58.54.100 aac\n",
      "frame=    5 fps=0.0 q=0.0 size=       0kB time=00:00:00.00 bitrate=N/A speed=   0x    \n",
      "frame=   15 fps= 15 q=0.0 size=       0kB time=00:00:00.00 bitrate=N/A speed=   0x    \n",
      "frame=   25 fps= 16 q=0.0 size=       0kB time=00:00:00.00 bitrate=N/A speed=   0x    \n",
      "frame=   35 fps= 17 q=0.0 size=       0kB time=00:00:00.00 bitrate=N/A speed=   0x    \n",
      "frame=   45 fps= 17 q=0.0 size=       0kB time=00:00:00.00 bitrate=N/A speed=   0x    \n",
      "frame=   47 fps= 10 q=0.0 size=       0kB time=00:00:00.00 bitrate=N/A speed=   0x    \n",
      "frame=   54 fps= 11 q=0.0 size=       0kB time=00:00:00.00 bitrate=N/A speed=   0x    \n",
      "frame=   62 fps= 11 q=29.0 size=       0kB time=00:00:00.11 bitrate=   3.3kbits/s speed=0.0207x    \n",
      "frame=   71 fps= 12 q=29.0 size=       0kB time=00:00:00.41 bitrate=   0.9kbits/s speed=0.068x    \n",
      "frame=   80 fps= 12 q=29.0 size=       0kB time=00:00:00.71 bitrate=   0.5kbits/s speed=0.108x    \n",
      "frame=   89 fps= 12 q=29.0 size=       0kB time=00:00:01.02 bitrate=   0.4kbits/s speed=0.142x    \n",
      "frame=   97 fps= 13 q=29.0 size=       0kB time=00:00:01.30 bitrate=   0.3kbits/s speed=0.168x    \n",
      "frame=  105 fps= 13 q=29.0 size=       0kB time=00:00:01.55 bitrate=   0.2kbits/s speed=0.189x    \n",
      "frame=  114 fps= 13 q=29.0 size=     256kB time=00:00:01.85 bitrate=1129.2kbits/s speed=0.211x    \n",
      "frame=  123 fps= 13 q=29.0 size=     256kB time=00:00:02.15 bitrate= 971.3kbits/s speed=0.232x    \n",
      "frame=  132 fps= 13 q=29.0 size=     256kB time=00:00:02.46 bitrate= 852.2kbits/s speed=0.25x    \n",
      "frame=  141 fps= 14 q=29.0 size=     256kB time=00:00:02.76 bitrate= 759.1kbits/s speed=0.267x    \n",
      "frame=  151 fps= 14 q=29.0 size=     256kB time=00:00:03.08 bitrate= 679.2kbits/s speed=0.284x    \n",
      "frame=  161 fps= 14 q=29.0 size=     256kB time=00:00:03.41 bitrate= 614.5kbits/s speed=0.299x    \n",
      "frame=  171 fps= 14 q=29.0 size=     256kB time=00:00:03.76 bitrate= 557.6kbits/s speed=0.314x    \n",
      "frame=  181 fps= 14 q=29.0 size=     512kB time=00:00:04.08 bitrate=1026.4kbits/s speed=0.326x    \n",
      "frame=  190 fps= 15 q=29.0 size=     512kB time=00:00:04.38 bitrate= 955.8kbits/s speed=0.337x    \n",
      "frame=  199 fps= 15 q=29.0 size=     512kB time=00:00:04.69 bitrate= 894.3kbits/s speed=0.346x    \n",
      "frame=  208 fps= 15 q=29.0 size=     512kB time=00:00:04.99 bitrate= 840.2kbits/s speed=0.356x    \n",
      "frame=  218 fps= 15 q=29.0 size=     512kB time=00:00:05.31 bitrate= 788.9kbits/s speed=0.364x    \n",
      "frame=  227 fps= 15 q=29.0 size=     512kB time=00:00:05.61 bitrate= 746.5kbits/s speed=0.372x    \n",
      "frame=  237 fps= 15 q=29.0 size=     512kB time=00:00:05.96 bitrate= 702.9kbits/s speed=0.382x    \n",
      "frame=  247 fps= 15 q=29.0 size=     768kB time=00:00:06.29 bitrate= 999.9kbits/s speed=0.389x    \n",
      "frame=  257 fps= 15 q=29.0 size=     768kB time=00:00:06.61 bitrate= 950.8kbits/s speed=0.396x    \n",
      "frame=  267 fps= 15 q=29.0 size=     768kB time=00:00:06.96 bitrate= 903.2kbits/s speed=0.404x    \n",
      "frame=  277 fps= 16 q=29.0 size=     768kB time=00:00:07.29 bitrate= 863.0kbits/s speed=0.41x    \n",
      "frame=  287 fps= 16 q=29.0 size=     768kB time=00:00:07.61 bitrate= 826.1kbits/s speed=0.416x    \n",
      "frame=  296 fps= 16 q=26.0 size=     768kB time=00:00:07.91 bitrate= 794.6kbits/s speed=0.42x    \n",
      "frame=  305 fps= 16 q=29.0 size=     768kB time=00:00:08.21 bitrate= 765.4kbits/s speed=0.424x    \n",
      "frame=  314 fps= 16 q=29.0 size=    1024kB time=00:00:08.50 bitrate= 986.9kbits/s speed=0.426x    \n",
      "frame=  323 fps= 16 q=29.0 size=    1024kB time=00:00:08.80 bitrate= 953.3kbits/s speed=0.43x    \n",
      "frame=  333 fps= 16 q=29.0 size=    1024kB time=00:00:09.13 bitrate= 918.5kbits/s speed=0.435x    \n",
      "frame=  343 fps= 16 q=29.0 size=    1024kB time=00:00:09.46 bitrate= 886.2kbits/s speed=0.44x    \n",
      "frame=  354 fps= 16 q=29.0 size=    1024kB time=00:00:09.83 bitrate= 853.1kbits/s speed=0.446x    \n",
      "frame=  364 fps= 16 q=29.0 size=    1024kB time=00:00:10.16 bitrate= 825.1kbits/s speed=0.451x    \n",
      "frame=  374 fps= 16 q=29.0 size=    1024kB time=00:00:10.50 bitrate= 798.9kbits/s speed=0.455x    \n",
      "frame=  384 fps= 16 q=29.0 size=    1024kB time=00:00:10.83 bitrate= 774.4kbits/s speed=0.46x    \n",
      "frame=  394 fps= 16 q=29.0 size=    1024kB time=00:00:11.16 bitrate= 751.2kbits/s speed=0.463x    \n",
      "frame=  404 fps= 16 q=29.0 size=    1024kB time=00:00:11.50 bitrate= 729.5kbits/s speed=0.467x    \n",
      "frame=  414 fps= 16 q=29.0 size=    1024kB time=00:00:11.83 bitrate= 708.9kbits/s speed=0.471x    \n",
      "frame=  418 fps= 16 q=-1.0 Lsize=    1463kB time=00:00:13.83 bitrate= 866.5kbits/s speed=0.532x    \n",
      "video:1319kB audio:133kB subtitle:0kB other streams:0kB global headers:0kB muxing overhead: 0.812825%\n",
      "[libx264 @ 0000023bfd90d840] frame I:2     Avg QP:11.88  size: 37420\n",
      "[libx264 @ 0000023bfd90d840] frame P:178   Avg QP:18.44  size:  4176\n",
      "[libx264 @ 0000023bfd90d840] frame B:238   Avg QP:20.04  size:  2233\n",
      "[libx264 @ 0000023bfd90d840] consecutive B-frames: 17.0% 16.7% 13.6% 52.6%\n",
      "[libx264 @ 0000023bfd90d840] mb I  I16..4: 83.2% 14.3%  2.5%\n",
      "[libx264 @ 0000023bfd90d840] mb P  I16..4:  0.3%  0.3%  0.3%  P16..4:  0.7%  0.3%  0.1%  0.0%  0.0%    skip:97.9%\n",
      "[libx264 @ 0000023bfd90d840] mb B  I16..4:  0.1%  0.0%  0.1%  B16..8:  1.1%  0.3%  0.1%  direct: 0.0%  skip:98.3%  L0:51.5% L1:44.8% BI: 3.8%\n",
      "[libx264 @ 0000023bfd90d840] 8x8 transform intra:23.4% inter:45.9%\n",
      "[libx264 @ 0000023bfd90d840] coded y,uvDC,uvAC intra: 12.0% 20.3% 15.7% inter: 0.1% 0.1% 0.1%\n",
      "[libx264 @ 0000023bfd90d840] i16 v,h,dc,p: 73% 26%  1%  0%\n",
      "[libx264 @ 0000023bfd90d840] i8 v,h,dc,ddl,ddr,vr,hd,vl,hu: 26%  6% 66%  1%  0%  0%  0%  0%  0%\n",
      "[libx264 @ 0000023bfd90d840] i4 v,h,dc,ddl,ddr,vr,hd,vl,hu: 36% 22% 26%  4%  2%  2%  2%  3%  2%\n",
      "[libx264 @ 0000023bfd90d840] i8c dc,h,v,p: 63% 23% 14%  0%\n",
      "[libx264 @ 0000023bfd90d840] Weighted P-Frames: Y:0.0% UV:0.0%\n",
      "[libx264 @ 0000023bfd90d840] ref P L0: 64.9%  2.9% 20.6% 11.7%\n",
      "[libx264 @ 0000023bfd90d840] ref B L0: 74.6% 20.0%  5.4%\n",
      "[libx264 @ 0000023bfd90d840] ref B L1: 94.6%  5.4%\n",
      "[libx264 @ 0000023bfd90d840] kb/s:774.90\n",
      "[aac @ 0000023bfd95f480] Qavg: 226.245\n"
     ]
    }
   ],
   "source": [
    "!ffmpeg -y -r {FPS} -f image2 -s 1920x1080 -i frame%d.png -i {AUDIO_FILE} -c:v libx264 -pix_fmt yuv420p movie.mp4"
   ]
  },
  {
   "cell_type": "code",
   "execution_count": null,
   "id": "fc2c889d-f854-4e51-bfc8-281d33c964cc",
   "metadata": {},
   "outputs": [],
   "source": []
  }
 ],
 "metadata": {
  "kernelspec": {
   "display_name": "Python [conda env:devPy]",
   "language": "python",
   "name": "conda-env-devPy-py"
  },
  "language_info": {
   "codemirror_mode": {
    "name": "ipython",
    "version": 3
   },
   "file_extension": ".py",
   "mimetype": "text/x-python",
   "name": "python",
   "nbconvert_exporter": "python",
   "pygments_lexer": "ipython3",
   "version": "3.11.9"
  }
 },
 "nbformat": 4,
 "nbformat_minor": 5
}
